<svg width="24" height="24" viewBox="0 0 24 24" fill="none" xmlns="http://www.w3.org/2000/svg">
<mask id="path-1-outside-1_37_80" maskUnits="userSpaceOnUse" x="0" y="0" width="24" height="24" fill="black">
<rect fill="white" width="24" height="24"/>
<path fill-rule="evenodd" clip-rule="evenodd" d="M23 17.4431C21.627 17.9802 20.1258 18.276 18.553 18.276C12.015 18.276 6.71491 13.1646 6.71491 6.85952C6.71491 4.71733 7.32671 2.71294 8.391 1C4.05673 2.69546 1 6.79525 1 11.5836C1 17.8887 6.30007 23 12.838 23C17.1547 23 20.9318 20.7718 23 17.4431Z"/>
</mask>
<path d="M23 17.4431L23.8494 17.9708C24.0767 17.605 24.0442 17.1347 23.7688 16.8036C23.4933 16.4724 23.0368 16.3549 22.6357 16.5118L23 17.4431ZM8.391 1L9.2404 1.52775C9.46771 1.1619 9.43523 0.691614 9.15978 0.36049C8.88434 0.029366 8.42782 -0.0881897 8.02671 0.0687163L8.391 1ZM22.6357 16.5118C21.3774 17.004 19.9997 17.276 18.553 17.276V19.276C20.2519 19.276 21.8766 18.9563 23.3643 18.3744L22.6357 16.5118ZM18.553 17.276C12.5328 17.276 7.71491 12.5785 7.71491 6.85952H5.71491C5.71491 13.7508 11.4972 19.276 18.553 19.276V17.276ZM7.71491 6.85952C7.71491 4.91091 8.27075 3.08838 9.2404 1.52775L7.5416 0.47225C6.38268 2.33751 5.71491 4.52374 5.71491 6.85952H7.71491ZM2 11.5836C2 7.23791 4.77474 3.48838 8.7553 1.93128L8.02671 0.0687163C3.33872 1.90254 0 6.35259 0 11.5836H2ZM12.838 22C6.81787 22 2 17.3025 2 11.5836H0C0 18.4748 5.78228 24 12.838 24V22ZM22.1506 16.9153C20.2633 19.9529 16.806 22 12.838 22V24C17.5034 24 21.6002 21.5908 23.8494 17.9708L22.1506 16.9153Z" fill="white" mask="url(#path-1-outside-1_37_80)"/>
</svg>
